<svg xmlns="http://www.w3.org/2000/svg" version="1.1" xmlns:xlink="http://www.w3.org/1999/xlink" xmlns:svgjs="http://svgjs.dev/svgjs" width="1000" height="378" viewBox="0 0 1000 378"><g transform="matrix(1,0,0,1,-0.6060595818473189,0.16063376575110055)"><svg viewBox="0 0 396 150" data-background-color="#ffffff" preserveAspectRatio="xMidYMid meet" height="378" width="1000" xmlns="http://www.w3.org/2000/svg" xmlns:xlink="http://www.w3.org/1999/xlink"><defs></defs><g id="tight-bounds" transform="matrix(1,0,0,1,0.23999959441152896,-0.06374031313004025)"><svg viewBox="0 0 395.52 150.12748387096775" height="150.12748387096775" width="395.52"><g><svg viewBox="0 0 395.52 150.12748387096775" height="150.12748387096775" width="395.52"><g><svg viewBox="0 0 395.52 150.12748387096775" height="150.12748387096775" width="395.52"><g><svg viewBox="0 0 395.52 150.12748387096775" height="150.12748387096775" width="395.52"><g><svg viewBox="0 0 395.52 150.12748387096775" height="150.12748387096775" width="395.52"><g transform="matrix(1,0,0,1,0,0)"><svg width="395.52" viewBox="5.699999809265137 -35.29999923706055 93 35.29999923706055" height="150.12748387096775" data-palette-color="#000000"><path d="M5.7 0L5.7-35 19.95-35Q25.5-35 29.75-32.77 34-30.55 36.35-26.58 38.7-22.6 38.7-17.5L38.7-17.5Q38.7-12.4 36.35-8.43 34-4.45 29.75-2.23 25.5 0 19.95 0L19.95 0 5.7 0ZM9.4-3.2L19.75-3.2Q24.35-3.2 27.8-5.03 31.25-6.85 33.15-10.08 35.05-13.3 35.05-17.5L35.05-17.5Q35.05-21.7 33.15-24.93 31.25-28.15 27.8-29.98 24.35-31.8 19.75-31.8L19.75-31.8 9.4-31.8 9.4-3.2ZM69.95-31.45L68.6-28.55Q63.45-31.55 57.2-32L57.2-32 57.2 0 53.5 0 53.5-32Q47.35-31.6 42.05-28.55L42.05-28.55 40.7-31.45Q47.2-35.3 55.3-35.3L55.3-35.3Q63.55-35.3 69.95-31.45L69.95-31.45ZM88.65-32Q83.5-32 80.97-29.68 78.45-27.35 78.45-22.95L78.45-22.95 78.45-18.05 95.15-18.05 95.15-14.85 78.45-14.85 78.45 0 74.75 0 74.75-23Q74.75-28.75 78.35-32.02 81.95-35.3 88.5-35.3L88.5-35.3Q94.85-35.3 98.7-32.55L98.7-32.55 97.35-29.5Q93.95-32 88.65-32L88.65-32Z" opacity="1" transform="matrix(1,0,0,1,0,0)" fill="#000000" class="undefined-text-0" data-fill-palette-color="primary" id="text-0"></path></svg></g></svg></g></svg></g></svg></g></svg></g></svg><rect width="395.52" height="150.12748387096775" fill="none" stroke="none" visibility="hidden"></rect></g></svg></g></svg>